# xmcd
#
# Track frame offsets: 
#        150
#        10050
#        16792
#        29262
#        38947
#        48157
#        57680
#        67795
#        78477
#        90462
#        104117
#        115937
#        125092
#        137965
#        158812
#        170520
#        180080
#        198372
#        214322
#        226220
#        239615
#        259712
#        273467
#        284390
#        297410
#        311180
#        321227
#
# Disc length: 4415 seconds
#
# Revision: 4
# Processed by: cddbd v1.5.2PL0 Copyright (c) Steve Scherf et al.
# Submitted via: ExactAudioCopyFreeDBPlugin 1.0
#
DISCID=8c113d1b
DTITLE=Various Artist - Folk Song America^ A 20th Century Revival [di
DTITLE=sc 3]
DYEAR=1991
DGENRE=Blues
TTITLE0=The Limeliters - Lonesome Traveler
TTITLE1=A.l. Lloyd and Ewan Maccoll - Santy Anna
TTITLE2=The Tokens - The Lion Sleeps Tonight
TTITLE3=Dave Van Ronk - Yas-Yas-Yas
TTITLE4=Jack Elliot - Portland Town
TTITLE5=Lester Flatt and Earl Scruggs - Salty Dog Blues
TTITLE6=Clancy Brothers - Whiskey, You're the Devil
TTITLE7=Freedom Singers - We Shall Not Be Moved
TTITLE8=Peggy Seeger - The First Time Ever I Saw Your Face
TTITLE9=Mississippi John Hurt - Candy Man Blues
TTITLE10=Rooftop Singers - Walk Right In
TTITLE11=Pete Seeger - Little Boxes
TTITLE12=Bob Dylan - Blowin' in the Wind
TTITLE13=Jack Koerner - Duncan and Brady
TTITLE14=Hedy West - Pans of Biscuits
TTITLE15=Tom Rush - I Don't Want Your Millions, Mister
TTITLE16=Tom Paxton - Rambling Boy
TTITLE17=Doc Watson - St. James Hospital
TTITLE18=Kentucky Colonels - I Am a Pilgrim
TTITLE19=Ian and Sylvia - Captain Woodstock's Courtship
TTITLE20=Patrick Sky - Ballad of Ira Hayes
TTITLE21=Richard and Mimi Farina - Pack Up Your Sorrows
TTITLE22=The Byrds - Mr. Tambourine Man
TTITLE23=Buffy Sainte-Marie - Now That the Buffalo's Gone
TTITLE24=Jim Kweskin and The Jug Band - Jug Band Music
TTITLE25=Simon and Garfunkel - Last Night I Had the Strangest Dream
TTITLE26=Phil Ochs - There But for Fortune
EXTD=
EXTT0=
EXTT1=
EXTT2=
EXTT3=
EXTT4=
EXTT5=
EXTT6=
EXTT7=
EXTT8=
EXTT9=
EXTT10=
EXTT11=
EXTT12=
EXTT13=
EXTT14=
EXTT15=
EXTT16=
EXTT17=
EXTT18=
EXTT19=
EXTT20=
EXTT21=
EXTT22=
EXTT23=
EXTT24=
EXTT25=
EXTT26=
PLAYORDER=
